# Blender 3.6.4
# www.blender.org
o Rods
v -0.375000 0.375000 -0.125000
v -0.375000 0.375000 0.125000
v -0.500000 -0.500000 -0.125000
v -0.500000 0.500000 -0.125000
v -0.500000 0.500000 0.125000
v 0.500000 0.500000 -0.125000
v 0.375000 0.375000 -0.125000
v 0.375000 -0.375000 -0.125000
v 0.500000 0.500000 0.125000
v 0.375000 0.375000 0.125000
v 0.375000 -0.375000 0.125000
v 0.500000 -0.500000 -0.125000
v -0.375000 -0.375000 -0.125000
v 0.500000 -0.500000 0.125000
v -0.500000 -0.500000 0.125000
v -0.375000 -0.375000 0.125000
v -0.250000 -0.125000 -0.125000
v -0.250000 0.375000 -0.125000
v -0.125000 -0.125000 -0.125000
v -0.125000 0.375000 -0.125000
v -0.250000 -0.125000 0.125000
v -0.250000 0.375000 0.125000
v -0.125000 -0.125000 0.125000
v -0.125000 0.375000 0.125000
v 0.125000 -0.375000 -0.125000
v 0.125000 0.125000 -0.125000
v 0.250000 -0.375000 -0.125000
v 0.250000 0.125000 -0.125000
v 0.125000 -0.375000 0.125000
v 0.125000 0.125000 0.125000
v 0.250000 -0.375000 0.125000
v 0.250000 0.125000 0.125000
v -0.125000 0.250000 -0.125000
v 0.375000 0.250000 -0.125000
v -0.125000 0.125000 -0.125000
v 0.375000 0.125000 -0.125000
v -0.125000 0.250000 0.125000
v 0.375000 0.250000 0.125000
v -0.125000 0.125000 0.125000
v 0.375000 0.125000 0.125000
v -0.375000 -0.125000 -0.125000
v 0.125000 -0.125000 -0.125000
v -0.375000 -0.250000 -0.125000
v 0.125000 -0.250000 -0.125000
v -0.375000 -0.125000 0.125000
v 0.125000 -0.125000 0.125000
v -0.375000 -0.250000 0.125000
v 0.125000 -0.250000 0.125000
vn -0.0000 -0.0000 -1.0000
vn -0.0000 -1.0000 -0.0000
vn -0.0000 -0.0000 1.0000
vn -0.0000 1.0000 -0.0000
vn 1.0000 -0.0000 -0.0000
vn -1.0000 -0.0000 -0.0000
vt 0.375000 0.000000
vt 0.625000 0.000000
vt 0.625000 0.250000
vt 0.375000 0.250000
vt 0.625000 0.500000
vt 0.375000 0.500000
vt 0.625000 0.750000
vt 0.375000 0.750000
vt 0.625000 1.000000
vt 0.375000 1.000000
s 0
usemtl Concrete
f 4/1/1 6/2/1 7/3/1 1/4/1
f 1/4/2 7/3/2 10/5/2 2/6/2
f 2/6/3 10/5/3 9/7/3 5/8/3
f 5/8/4 9/7/4 6/9/4 4/10/4
f 3/1/1 4/2/1 1/3/1 13/4/1
f 13/4/5 1/3/5 2/5/5 16/6/5
f 16/6/3 2/5/3 5/7/3 15/8/3
f 15/8/6 5/7/6 4/9/6 3/10/6
f 6/1/1 12/2/1 8/3/1 7/4/1
f 7/4/6 8/3/6 11/5/6 10/6/6
f 10/6/3 11/5/3 14/7/3 9/8/3
f 9/8/5 14/7/5 12/9/5 6/10/5
f 12/1/1 3/2/1 13/3/1 8/4/1
f 8/4/4 13/3/4 16/5/4 11/6/4
f 11/6/3 16/5/3 15/7/3 14/8/3
f 14/8/2 15/7/2 3/9/2 12/10/2
f 17/1/1 18/2/1 20/3/1 19/4/1
f 19/4/5 20/3/5 24/5/5 23/6/5
f 23/6/3 24/5/3 22/7/3 21/8/3
f 21/8/6 22/7/6 18/9/6 17/10/6
f 25/1/1 26/2/1 28/3/1 27/4/1
f 27/4/5 28/3/5 32/5/5 31/6/5
f 31/6/3 32/5/3 30/7/3 29/8/3
f 29/8/6 30/7/6 26/9/6 25/10/6
f 33/1/1 34/2/1 36/3/1 35/4/1
f 35/4/2 36/3/2 40/5/2 39/6/2
f 39/6/3 40/5/3 38/7/3 37/8/3
f 37/8/4 38/7/4 34/9/4 33/10/4
f 41/1/1 42/2/1 44/3/1 43/4/1
f 43/4/2 44/3/2 48/5/2 47/6/2
f 47/6/3 48/5/3 46/7/3 45/8/3
f 45/8/4 46/7/4 42/9/4 41/10/4
