# Blender 3.6.4
# www.blender.org
mtllib breeze_blocks_hexagon.mtl
o Hexagon
v 0.500000 0.500000 0.125000
v -0.500000 0.500000 0.125000
v -0.500000 0.500000 -0.125000
v 0.375000 0.375000 -0.125000
v 0.500000 -0.500000 0.125000
v 0.500000 -0.500000 -0.125000
v 0.500000 0.500000 -0.125000
v -0.375000 0.375000 0.125000
v -0.500000 -0.500000 0.125000
v -0.500000 -0.500000 -0.125000
v -0.375000 -0.375000 -0.125000
v 0.375000 -0.375000 -0.125000
v 0.375000 0.125000 0.125000
v 0.375000 0.375000 0.125000
v 0.250000 0.250000 0.125000
v 0.125000 0.375000 0.125000
v 0.375000 0.125000 -0.125000
v 0.250000 0.250000 -0.125000
v 0.125000 0.375000 -0.125000
v -0.125000 0.375000 0.125000
v -0.250000 0.250000 0.125000
v -0.375000 0.125000 0.125000
v -0.125000 0.375000 -0.125000
v -0.375000 0.375000 -0.125000
v -0.250000 0.250000 -0.125000
v -0.375000 0.125000 -0.125000
v -0.375000 -0.125000 0.125000
v -0.375000 -0.375000 0.125000
v -0.250000 -0.250000 0.125000
v -0.125000 -0.375000 0.125000
v -0.375000 -0.125000 -0.125000
v -0.250000 -0.250000 -0.125000
v -0.125000 -0.375000 -0.125000
v 0.125000 -0.375000 0.125000
v 0.375000 -0.375000 0.125000
v 0.250000 -0.250000 0.125000
v 0.375000 -0.125000 0.125000
v 0.125000 -0.375000 -0.125000
v 0.250000 -0.250000 -0.125000
v 0.375000 -0.125000 -0.125000
vn -0.0000 -0.0000 1.0000
vn -0.0000 -1.0000 -0.0000
vn -0.0000 -0.0000 -1.0000
vn -0.0000 1.0000 -0.0000
vn -1.0000 -0.0000 -0.0000
vn 1.0000 -0.0000 -0.0000
vn -0.7071 -0.7071 -0.0000
vn 0.7071 -0.7071 -0.0000
vn 0.7071 0.7071 -0.0000
vn -0.7071 0.7071 -0.0000
vt 0.375000 0.000000
vt 0.625000 0.000000
vt 0.625000 0.250000
vt 0.375000 0.250000
vt 0.625000 0.500000
vt 0.375000 0.500000
vt 0.625000 0.750000
vt 0.375000 0.750000
vt 0.625000 1.000000
vt 0.375000 1.000000
vt 0.125000 0.500000
vt 0.125000 0.750000
s 0
usemtl Concrete
f 1/1/1 2/2/1 8/3/1 14/4/1
f 14/4/2 8/3/2 24/5/2 4/6/2
f 4/6/3 24/5/3 3/7/3 7/8/3
f 7/8/4 3/7/4 2/9/4 1/10/4
f 5/1/1 1/2/1 14/3/1 35/4/1
f 35/4/5 14/3/5 4/5/5 12/6/5
f 12/6/3 4/5/3 7/7/3 6/8/3
f 6/8/6 7/7/6 1/9/6 5/10/6
f 2/1/1 9/2/1 28/3/1 8/4/1
f 8/4/6 28/3/6 11/5/6 24/6/6
f 24/6/3 11/5/3 10/7/3 3/8/3
f 3/8/5 10/7/5 9/9/5 2/10/5
f 9/1/1 5/2/1 35/3/1 28/4/1
f 28/4/4 35/3/4 12/5/4 11/6/4
f 11/6/3 12/5/3 6/7/3 10/8/3
f 10/8/2 6/7/2 5/9/2 9/10/2
f 13/1/1 14/2/1 16/3/1 15/4/1
f 15/4/7 16/3/7 19/5/7 18/6/7
f 18/6/3 19/5/3 4/7/3 17/8/3
f 15/11/7 18/6/7 17/8/7 13/12/7
f 20/1/1 8/2/1 22/3/1 21/4/1
f 21/4/8 22/3/8 26/5/8 25/6/8
f 25/6/3 26/5/3 24/7/3 23/8/3
f 21/11/8 25/6/8 23/8/8 20/12/8
f 27/1/1 28/2/1 30/3/1 29/4/1
f 29/4/9 30/3/9 33/5/9 32/6/9
f 32/6/3 33/5/3 11/7/3 31/8/3
f 29/11/9 32/6/9 31/8/9 27/12/9
f 34/1/1 35/2/1 37/3/1 36/4/1
f 36/4/10 37/3/10 40/5/10 39/6/10
f 39/6/3 40/5/3 12/7/3 38/8/3
f 36/11/10 39/6/10 38/8/10 34/12/10
