# Blender 3.6.4
# www.blender.org
mtllib breeze_blocks_grate.mtl
o Grate
v -0.500000 0.500000 -0.125000
v 0.375000 0.375000 -0.125000
v 0.500000 0.500000 0.125000
v 0.375000 0.375000 0.125000
v 0.500000 -0.500000 -0.125000
v 0.500000 0.500000 -0.125000
v 0.375000 -0.375000 -0.125000
v -0.500000 0.500000 0.125000
v -0.375000 0.375000 0.125000
v -0.375000 -0.375000 0.125000
v -0.375000 0.375000 -0.125000
v -0.500000 -0.500000 0.125000
v 0.500000 -0.500000 0.125000
v 0.375000 -0.375000 0.125000
v -0.500000 -0.500000 -0.125000
v -0.375000 -0.375000 -0.125000
v 0.375000 -0.250000 0.125000
v 0.375000 -0.125000 0.125000
v -0.375000 -0.250000 0.125000
v -0.375000 -0.125000 0.125000
v 0.375000 -0.250000 -0.125000
v 0.375000 -0.125000 -0.125000
v -0.375000 -0.250000 -0.125000
v -0.375000 -0.125000 -0.125000
v 0.375000 0.125000 0.125000
v 0.375000 0.250000 0.125000
v -0.375000 0.125000 0.125000
v -0.375000 0.250000 0.125000
v 0.375000 0.125000 -0.125000
v 0.375000 0.250000 -0.125000
v -0.375000 0.125000 -0.125000
v -0.375000 0.250000 -0.125000
v 0.250000 0.250000 0.125000
v 0.250000 0.375000 0.125000
v 0.125000 0.250000 0.125000
v 0.125000 0.375000 0.125000
v 0.250000 0.250000 -0.125000
v 0.250000 0.375000 -0.125000
v 0.125000 0.250000 -0.125000
v 0.125000 0.375000 -0.125000
v -0.125000 0.250000 0.125000
v -0.125000 0.375000 0.125000
v -0.250000 0.250000 0.125000
v -0.250000 0.375000 0.125000
v -0.125000 0.250000 -0.125000
v -0.125000 0.375000 -0.125000
v -0.250000 0.250000 -0.125000
v -0.250000 0.375000 -0.125000
v 0.250000 -0.375000 0.125000
v 0.250000 -0.250000 0.125000
v 0.125000 -0.375000 0.125000
v 0.125000 -0.250000 0.125000
v 0.250000 -0.375000 -0.125000
v 0.250000 -0.250000 -0.125000
v 0.125000 -0.375000 -0.125000
v 0.125000 -0.250000 -0.125000
v -0.125000 -0.375000 0.125000
v -0.125000 -0.250000 0.125000
v -0.250000 -0.375000 0.125000
v -0.250000 -0.250000 0.125000
v -0.125000 -0.375000 -0.125000
v -0.125000 -0.250000 -0.125000
v -0.250000 -0.375000 -0.125000
v -0.250000 -0.250000 -0.125000
vn -0.0000 -0.0000 1.0000
vn -0.0000 -1.0000 -0.0000
vn -0.0000 -0.0000 -1.0000
vn -0.0000 1.0000 -0.0000
vn -1.0000 -0.0000 -0.0000
vn 1.0000 -0.0000 -0.0000
vt 0.375000 0.000000
vt 0.625000 0.000000
vt 0.625000 0.250000
vt 0.375000 0.250000
vt 0.625000 0.500000
vt 0.375000 0.500000
vt 0.625000 0.750000
vt 0.375000 0.750000
vt 0.625000 1.000000
vt 0.375000 1.000000
vt 0.125000 0.500000
vt 0.125000 0.750000
vt 0.875000 0.500000
vt 0.875000 0.750000
s 0
usemtl Concrete
f 3/1/1 8/2/1 9/3/1 4/4/1
f 4/4/2 9/3/2 11/5/2 2/6/2
f 2/6/3 11/5/3 1/7/3 6/8/3
f 6/8/4 1/7/4 8/9/4 3/10/4
f 13/1/1 3/2/1 4/3/1 14/4/1
f 14/4/5 4/3/5 2/5/5 7/6/5
f 7/6/3 2/5/3 6/7/3 5/8/3
f 5/8/6 6/7/6 3/9/6 13/10/6
f 8/1/1 12/2/1 10/3/1 9/4/1
f 9/4/6 10/3/6 16/5/6 11/6/6
f 11/6/3 16/5/3 15/7/3 1/8/3
f 1/8/5 15/7/5 12/9/5 8/10/5
f 12/1/1 13/2/1 14/3/1 10/4/1
f 10/4/4 14/3/4 7/5/4 16/6/4
f 16/6/3 7/5/3 5/7/3 15/8/3
f 15/8/2 5/7/2 13/9/2 12/10/2
f 17/1/1 18/2/1 20/3/1 19/4/1
f 23/6/3 24/5/3 22/7/3 21/8/3
f 19/11/2 23/6/2 21/8/2 17/12/2
f 24/5/4 20/13/4 18/14/4 22/7/4
f 25/1/1 26/2/1 28/3/1 27/4/1
f 31/6/3 32/5/3 30/7/3 29/8/3
f 27/11/2 31/6/2 29/8/2 25/12/2
f 32/5/4 28/13/4 26/14/4 30/7/4
f 33/1/1 34/2/1 36/3/1 35/4/1
f 35/4/5 36/3/5 40/5/5 39/6/5
f 39/6/3 40/5/3 38/7/3 37/8/3
f 37/8/6 38/7/6 34/9/6 33/10/6
f 41/1/1 42/2/1 44/3/1 43/4/1
f 43/4/5 44/3/5 48/5/5 47/6/5
f 47/6/3 48/5/3 46/7/3 45/8/3
f 45/8/6 46/7/6 42/9/6 41/10/6
f 49/1/1 50/2/1 52/3/1 51/4/1
f 51/4/5 52/3/5 56/5/5 55/6/5
f 55/6/3 56/5/3 54/7/3 53/8/3
f 53/8/6 54/7/6 50/9/6 49/10/6
f 57/1/1 58/2/1 60/3/1 59/4/1
f 59/4/5 60/3/5 64/5/5 63/6/5
f 63/6/3 64/5/3 62/7/3 61/8/3
f 61/8/6 62/7/6 58/9/6 57/10/6
