# Blender 3.6.4
# www.blender.org
mtllib breeze_blocks_waves.mtl
o Waves
v 0.500000 0.500000 0.125000
v -0.500000 0.500000 0.125000
v 0.375000 0.375000 0.125000
v -0.500000 0.500000 -0.125000
v -0.375000 0.375000 -0.125000
v 0.500000 0.500000 -0.125000
v 0.375000 -0.375000 -0.125000
v -0.500000 -0.500000 0.125000
v 0.500000 -0.500000 0.125000
v 0.375000 -0.375000 0.125000
v -0.500000 -0.500000 -0.125000
v 0.500000 -0.500000 -0.125000
v 0.375000 0.125000 0.125000
v 0.375000 0.250000 0.125000
v -0.375000 0.125000 0.125000
v -0.375000 0.250000 0.125000
v 0.375000 0.125000 -0.125000
v 0.375000 0.250000 -0.125000
v -0.375000 0.125000 -0.125000
v -0.375000 0.250000 -0.125000
v -0.000000 0.125000 0.125000
v -0.000000 0.250000 0.125000
v 0.000000 0.125000 -0.125000
v 0.000000 0.250000 -0.125000
v 0.187500 0.187500 0.125000
v 0.187500 0.312500 -0.125000
v 0.187500 0.312500 0.125000
v 0.187500 0.187500 -0.125000
v -0.187500 0.312500 0.125000
v -0.187500 0.187500 -0.125000
v -0.187500 0.187500 0.125000
v -0.187500 0.312500 -0.125000
v 0.375000 -0.062500 0.125000
v 0.375000 0.062500 0.125000
v -0.375000 -0.062500 0.125000
v -0.375000 0.062500 0.125000
v 0.375000 -0.062500 -0.125000
v 0.375000 0.062500 -0.125000
v -0.375000 -0.062500 -0.125000
v -0.375000 0.062500 -0.125000
v -0.000000 -0.062500 0.125000
v -0.000000 0.062500 0.125000
v 0.000000 -0.062500 -0.125000
v 0.000000 0.062500 -0.125000
v 0.187500 0.000000 0.125000
v 0.187500 0.125000 -0.125000
v 0.187500 0.125000 0.125000
v 0.187500 0.000000 -0.125000
v -0.187500 0.125000 0.125000
v -0.187500 0.000000 -0.125000
v -0.187500 0.000000 0.125000
v -0.187500 0.125000 -0.125000
v 0.375000 -0.250000 0.125000
v 0.375000 -0.125000 0.125000
v -0.375000 -0.250000 0.125000
v -0.375000 -0.125000 0.125000
v 0.375000 -0.250000 -0.125000
v 0.375000 -0.125000 -0.125000
v -0.375000 -0.250000 -0.125000
v -0.375000 -0.125000 -0.125000
v -0.000000 -0.250000 0.125000
v -0.000000 -0.125000 0.125000
v 0.000000 -0.250000 -0.125000
v 0.000000 -0.125000 -0.125000
v 0.187500 -0.187500 0.125000
v 0.187500 -0.062500 -0.125000
v 0.187500 -0.062500 0.125000
v 0.187500 -0.187500 -0.125000
v -0.187500 -0.062500 0.125000
v -0.187500 -0.187500 -0.125000
v -0.187500 -0.187500 0.125000
v -0.187500 -0.062500 -0.125000
v 0.375000 -0.312500 0.125000
v -0.375000 -0.375000 0.125000
v -0.375000 -0.312500 0.125000
v 0.375000 -0.312500 -0.125000
v -0.375000 -0.375000 -0.125000
v -0.375000 -0.312500 -0.125000
v -0.000000 -0.312500 0.125000
v 0.000000 -0.312500 -0.125000
v -0.187500 -0.250000 0.125000
v 0.187500 -0.250000 -0.125000
v 0.187500 -0.250000 0.125000
v -0.187500 -0.250000 -0.125000
v 0.375000 0.312500 0.125000
v -0.375000 0.312500 0.125000
v -0.375000 0.375000 0.125000
v 0.375000 0.312500 -0.125000
v 0.375000 0.375000 -0.125000
v -0.375000 0.312500 -0.125000
v -0.000000 0.312500 0.125000
v -0.000000 0.375000 0.125000
v 0.000000 0.312500 -0.125000
v 0.000000 0.375000 -0.125000
v 0.187500 0.375000 0.125000
v 0.187500 0.375000 -0.125000
v -0.187500 0.375000 0.125000
v -0.187500 0.375000 -0.125000
vn -0.0000 -0.0000 1.0000
vn -0.0000 -1.0000 -0.0000
vn -0.0000 -0.0000 -1.0000
vn -0.0000 1.0000 -0.0000
vn -1.0000 -0.0000 -0.0000
vn 1.0000 -0.0000 -0.0000
vn 0.3162 0.9487 -0.0000
vn -0.3162 -0.9487 -0.0000
vn -0.3162 0.9487 -0.0000
vn 0.3162 -0.9487 -0.0000
vt 0.375000 0.000000
vt 0.625000 0.000000
vt 0.625000 0.250000
vt 0.375000 0.250000
vt 0.625000 0.500000
vt 0.375000 0.500000
vt 0.625000 0.750000
vt 0.375000 0.750000
vt 0.625000 1.000000
vt 0.375000 1.000000
vt 0.375000 0.187500
vt 0.625000 0.187500
vt 0.625000 0.562500
vt 0.875000 0.562500
vt 0.875000 0.625000
vt 0.625000 0.625000
vt 0.375000 0.687500
vt 0.625000 0.687500
vt 0.125000 0.562500
vt 0.375000 0.562500
vt 0.375000 0.625000
vt 0.125000 0.625000
vt 0.125000 0.687500
vt 0.125000 0.750000
vt 0.875000 0.687500
vt 0.875000 0.750000
vt 0.375000 0.062500
vt 0.625000 0.062500
vt 0.625000 0.125000
vt 0.375000 0.125000
vt 0.125000 0.500000
vt 0.875000 0.500000
s 0
usemtl Concrete
f 1/1/1 2/2/1 87/3/1 3/4/1
f 3/4/2 87/3/2 5/5/2 89/6/2
f 89/6/3 5/5/3 4/7/3 6/8/3
f 6/8/4 4/7/4 2/9/4 1/10/4
f 9/1/1 1/2/1 3/3/1 10/4/1
f 10/4/5 3/3/5 89/5/5 7/6/5
f 7/6/3 89/5/3 6/7/3 12/8/3
f 12/8/6 6/7/6 1/9/6 9/10/6
f 2/1/1 8/2/1 74/3/1 87/4/1
f 87/4/6 74/3/6 77/5/6 5/6/6
f 5/6/3 77/5/3 11/7/3 4/8/3
f 4/8/5 11/7/5 8/9/5 2/10/5
f 8/1/1 9/2/1 10/3/1 74/4/1
f 74/4/4 10/3/4 7/5/4 77/6/4
f 77/6/3 7/5/3 12/7/3 11/8/3
f 11/8/2 12/7/2 9/9/2 8/10/2
f 31/11/1 29/12/1 16/3/1 15/4/1
f 32/13/7 29/14/7 22/15/7 24/16/7
f 28/17/3 26/18/3 18/7/3 17/8/3
f 31/19/8 30/20/8 23/21/8 21/22/8
f 25/23/8 28/17/8 17/8/8 13/24/8
f 26/18/7 27/25/7 14/26/7 18/7/7
f 30/20/3 32/13/3 24/16/3 23/21/3
f 25/27/1 27/28/1 22/29/1 21/30/1
f 13/1/1 14/2/1 27/28/1 25/27/1
f 24/16/9 22/15/9 27/25/9 26/18/9
f 21/22/10 23/21/10 28/17/10 25/23/10
f 23/21/3 24/16/3 26/18/3 28/17/3
f 19/6/3 20/5/3 32/13/3 30/20/3
f 15/31/10 19/6/10 30/20/10 31/19/10
f 20/5/9 16/32/9 29/14/9 32/13/9
f 21/30/1 22/29/1 29/12/1 31/11/1
f 51/11/1 49/12/1 36/3/1 35/4/1
f 52/13/7 49/14/7 42/15/7 44/16/7
f 48/17/3 46/18/3 38/7/3 37/8/3
f 51/19/8 50/20/8 43/21/8 41/22/8
f 45/23/8 48/17/8 37/8/8 33/24/8
f 46/18/7 47/25/7 34/26/7 38/7/7
f 50/20/3 52/13/3 44/16/3 43/21/3
f 45/27/1 47/28/1 42/29/1 41/30/1
f 33/1/1 34/2/1 47/28/1 45/27/1
f 44/16/9 42/15/9 47/25/9 46/18/9
f 41/22/10 43/21/10 48/17/10 45/23/10
f 43/21/3 44/16/3 46/18/3 48/17/3
f 39/6/3 40/5/3 52/13/3 50/20/3
f 35/31/10 39/6/10 50/20/10 51/19/10
f 40/5/9 36/32/9 49/14/9 52/13/9
f 41/30/1 42/29/1 49/12/1 51/11/1
f 71/11/1 69/12/1 56/3/1 55/4/1
f 72/13/7 69/14/7 62/15/7 64/16/7
f 68/17/3 66/18/3 58/7/3 57/8/3
f 71/19/8 70/20/8 63/21/8 61/22/8
f 65/23/8 68/17/8 57/8/8 53/24/8
f 66/18/7 67/25/7 54/26/7 58/7/7
f 70/20/3 72/13/3 64/16/3 63/21/3
f 65/27/1 67/28/1 62/29/1 61/30/1
f 53/1/1 54/2/1 67/28/1 65/27/1
f 64/16/9 62/15/9 67/25/9 66/18/9
f 61/22/10 63/21/10 68/17/10 65/23/10
f 63/21/3 64/16/3 66/18/3 68/17/3
f 59/6/3 60/5/3 72/13/3 70/20/3
f 55/31/10 59/6/10 70/20/10 71/19/10
f 60/5/9 56/32/9 69/14/9 72/13/9
f 61/30/1 62/29/1 69/12/1 71/11/1
f 10/1/1 73/2/1 83/28/1 79/29/1 81/12/1 75/3/1 74/4/1
f 77/6/3 78/5/3 84/13/3 80/16/3 82/18/3 76/7/3 7/8/3
f 82/18/7 83/25/7 73/26/7 76/7/7
f 84/13/7 81/14/7 79/15/7 80/16/7
f 78/5/9 75/32/9 81/14/9 84/13/9
f 80/16/9 79/15/9 83/25/9 82/18/9
f 97/12/1 87/3/1 86/4/1
f 96/18/3 89/7/3 88/8/3
f 97/19/8 98/20/8 93/21/8 91/22/8
f 95/23/8 96/17/8 88/8/8 85/24/8
f 98/13/3 94/16/3 93/21/3
f 95/28/1 92/29/1 91/30/1
f 85/1/1 3/2/1 95/27/1
f 91/22/10 93/21/10 96/17/10 95/23/10
f 93/21/3 94/16/3 96/17/3
f 90/6/3 5/5/3 98/20/3
f 86/31/10 90/6/10 98/20/10 97/19/10
f 91/30/1 92/29/1 97/11/1
