# Blender 3.6.4
# www.blender.org
mtllib breeze_blocks_arch.mtl
o Arch
v 0.500000 0.500000 0.125000
v -0.500000 0.500000 0.125000
v 0.375000 0.375000 0.125000
v -0.375000 0.375000 0.125000
v 0.500000 0.500000 -0.125000
v -0.500000 0.500000 -0.125000
v 0.375000 0.375000 -0.125000
v -0.375000 0.375000 -0.125000
v 0.500000 -0.500000 0.125000
v 0.500000 0.500000 0.125000
v 0.375000 -0.375000 0.125000
v 0.375000 0.375000 0.125000
v 0.500000 -0.500000 -0.125000
v 0.500000 0.500000 -0.125000
v 0.375000 -0.375000 -0.125000
v 0.375000 0.375000 -0.125000
v -0.500000 0.500000 0.125000
v -0.500000 -0.500000 0.125000
v -0.375000 0.375000 0.125000
v -0.375000 -0.375000 0.125000
v -0.500000 0.500000 -0.125000
v -0.500000 -0.500000 -0.125000
v -0.375000 0.375000 -0.125000
v -0.375000 -0.375000 -0.125000
v -0.500000 -0.500000 0.125000
v 0.500000 -0.500000 0.125000
v -0.375000 -0.375000 0.125000
v 0.375000 -0.375000 0.125000
v -0.500000 -0.500000 -0.125000
v 0.500000 -0.500000 -0.125000
v -0.375000 -0.375000 -0.125000
v 0.375000 -0.375000 -0.125000
v 0.375000 -0.093750 0.125000
v 0.375000 0.078125 0.125000
v -0.375000 -0.093750 0.125000
v -0.375000 0.078125 0.125000
v 0.375000 -0.093750 -0.125000
v 0.375000 0.078125 -0.125000
v -0.375000 -0.093750 -0.125000
v -0.375000 0.078125 -0.125000
v -0.000000 0.250000 0.125000
v -0.000000 0.375000 0.125000
v 0.000000 0.250000 -0.125000
v 0.000000 0.375000 -0.125000
v 0.187500 0.156250 0.125000
v -0.187500 0.281250 0.125000
v -0.187500 0.156250 -0.125000
v 0.187500 0.281250 -0.125000
v -0.187500 0.156250 0.125000
v 0.187500 0.281250 0.125000
v 0.187500 0.156250 -0.125000
v -0.187500 0.281250 -0.125000
v -0.281250 0.203125 0.125000
v 0.281250 0.203125 -0.125000
v 0.093750 0.343750 0.125000
v -0.093750 0.343750 -0.125000
v -0.093750 0.343750 0.125000
v 0.093750 0.343750 -0.125000
v 0.281250 0.203125 0.125000
v -0.281250 0.203125 -0.125000
v 0.281250 0.046875 0.125000
v -0.281250 0.046875 -0.125000
v -0.093750 0.218750 0.125000
v 0.093750 0.218750 -0.125000
v 0.093750 0.218750 0.125000
v -0.093750 0.218750 -0.125000
v -0.281250 0.046875 0.125000
v 0.281250 0.046875 -0.125000
v -0.328125 0.148437 0.125000
v 0.328125 0.148437 -0.125000
v 0.328125 0.148437 0.125000
v -0.328125 0.148437 -0.125000
v -0.281250 -0.375000 0.125000
v -0.281250 0.046875 0.125000
v -0.375000 -0.375000 0.125000
v -0.375000 -0.093750 0.125000
v -0.281250 -0.375000 -0.125000
v -0.281250 0.046875 -0.125000
v -0.375000 -0.375000 -0.125000
v -0.375000 -0.093750 -0.125000
v 0.281250 -0.375000 -0.125000
v 0.281250 0.046875 -0.125000
v 0.375000 -0.375000 -0.125000
v 0.375000 -0.093750 -0.125000
v 0.281250 -0.375000 0.125000
v 0.281250 0.046875 0.125000
v 0.375000 -0.375000 0.125000
v 0.375000 -0.093750 0.125000
vn -0.0000 -0.0000 1.0000
vn -0.0000 -1.0000 -0.0000
vn -0.0000 -0.0000 -1.0000
vn -0.0000 1.0000 -0.0000
vn -1.0000 -0.0000 -0.0000
vn 1.0000 -0.0000 -0.0000
vn -0.8321 -0.5547 -0.0000
vn 0.8320 0.5547 -0.0000
vn -0.3162 0.9487 -0.0000
vn 0.3162 -0.9487 -0.0000
vn 0.7593 -0.6508 -0.0000
vn -0.6402 0.7682 -0.0000
vn 0.5547 0.8321 -0.0000
vn -0.5547 -0.8321 -0.0000
vn 0.3162 0.9487 -0.0000
vn -0.7593 0.6508 -0.0000
vn -0.5547 0.8321 -0.0000
vn 0.6402 0.7682 -0.0000
vn -0.3162 -0.9487 -0.0000
vn 0.8321 -0.5547 -0.0000
vn 0.5547 -0.8321 -0.0000
vn -0.7593 -0.6508 -0.0000
vn -0.8320 0.5547 -0.0000
vn 0.7593 0.6508 -0.0000
vt 0.375000 0.000000
vt 0.625000 0.000000
vt 0.625000 0.250000
vt 0.375000 0.250000
vt 0.625000 0.500000
vt 0.375000 0.500000
vt 0.625000 0.750000
vt 0.375000 0.750000
vt 0.625000 1.000000
vt 0.375000 1.000000
vt 0.375000 0.187500
vt 0.625000 0.187500
vt 0.625000 0.218750
vt 0.625000 0.234375
vt 0.375000 0.218750
vt 0.375000 0.687500
vt 0.625000 0.687500
vt 0.625000 0.718750
vt 0.625000 0.734375
vt 0.375000 0.718750
vt 0.125000 0.718750
vt 0.125000 0.750000
vt 0.875000 0.734375
vt 0.875000 0.750000
vt 0.625000 0.593750
vt 0.875000 0.593750
vt 0.875000 0.625000
vt 0.625000 0.625000
vt 0.125000 0.593750
vt 0.375000 0.593750
vt 0.375000 0.625000
vt 0.125000 0.625000
vt 0.375000 0.562500
vt 0.625000 0.562500
vt 0.375000 0.062500
vt 0.625000 0.062500
vt 0.625000 0.093750
vt 0.625000 0.125000
vt 0.375000 0.125000
vt 0.375000 0.093750
vt 0.625000 0.015625
vt 0.625000 0.031250
vt 0.375000 0.031250
vt 0.625000 0.515625
vt 0.625000 0.531250
vt 0.375000 0.531250
vt 0.125000 0.531250
vt 0.125000 0.562500
vt 0.875000 0.531250
vt 0.875000 0.562500
vt 0.625000 0.656250
vt 0.875000 0.656250
vt 0.875000 0.687500
vt 0.125000 0.656250
vt 0.375000 0.656250
vt 0.125000 0.687500
vt 0.625000 0.156250
vt 0.375000 0.156250
vt 0.875000 0.515625
vt 0.875000 0.718750
vt 0.125000 0.500000
vt 0.875000 0.500000
s 0
usemtl Concrete
f 1/1/1 2/2/1 4/3/1 3/4/1
f 3/4/2 4/3/2 8/5/2 7/6/2
f 7/6/3 8/5/3 6/7/3 5/8/3
f 5/8/4 6/7/4 2/9/4 1/10/4
f 9/1/1 10/2/1 12/3/1 11/4/1
f 11/4/5 12/3/5 16/5/5 15/6/5
f 15/6/3 16/5/3 14/7/3 13/8/3
f 13/8/6 14/7/6 10/9/6 9/10/6
f 17/1/1 18/2/1 20/3/1 19/4/1
f 19/4/6 20/3/6 24/5/6 23/6/6
f 23/6/3 24/5/3 22/7/3 21/8/3
f 21/8/5 22/7/5 18/9/5 17/10/5
f 25/1/1 26/2/1 28/3/1 27/4/1
f 27/4/4 28/3/4 32/5/4 31/6/4
f 31/6/3 32/5/3 30/7/3 29/8/3
f 29/8/2 30/7/2 26/9/2 25/10/2
f 49/11/1 46/12/1 53/13/1 69/14/1 36/3/1 35/4/1 67/15/1
f 35/4/5 36/3/5 40/5/5 39/6/5
f 51/16/3 48/17/3 54/18/3 70/19/3 38/7/3 37/8/3 68/20/3
f 37/8/6 38/7/6 34/9/6 33/10/6
f 61/21/7 68/20/7 37/8/7 33/22/7
f 70/19/8 71/23/8 34/24/8 38/7/8
f 56/25/9 57/26/9 42/27/9 44/28/9
f 63/29/10 66/30/10 43/31/10 41/32/10
f 47/33/3 52/34/3 56/25/3 44/28/3 43/31/3 66/30/3
f 45/35/1 50/36/1 55/37/1 42/38/1 41/39/1 65/40/1
f 33/1/1 34/2/1 71/41/1 59/42/1 50/36/1 45/35/1 61/43/1
f 39/6/3 40/5/3 72/44/3 60/45/3 52/34/3 47/33/3 62/46/3
f 67/47/11 62/46/11 47/33/11 49/48/11
f 60/45/12 53/49/12 46/50/12 52/34/12
f 58/51/13 55/52/13 50/53/13 48/17/13
f 65/54/14 64/55/14 51/16/14 45/56/14
f 43/31/3 44/28/3 58/51/3 48/17/3 51/16/3 64/55/3
f 41/39/1 42/38/1 57/57/1 46/12/1 49/11/1 63/58/1
f 44/28/15 42/27/15 55/52/15 58/51/15
f 72/44/16 69/59/16 53/49/16 60/45/16
f 52/34/17 46/50/17 57/26/17 56/25/17
f 48/17/18 50/53/18 59/60/18 54/18/18
f 41/32/19 43/31/19 64/55/19 65/54/19
f 35/61/20 39/6/20 62/46/20 67/47/20
f 49/48/21 47/33/21 66/30/21 63/29/21
f 45/56/22 51/16/22 68/20/22 61/21/22
f 40/5/23 36/62/23 69/59/23 72/44/23
f 54/18/24 59/60/24 71/23/24 70/19/24
f 73/1/1 74/2/1 76/3/1 75/4/1
f 79/6/3 80/5/3 78/7/3 77/8/3
f 77/8/6 78/7/6 74/9/6 73/10/6
f 81/1/3 82/2/3 84/3/3 83/4/3
f 87/6/1 88/5/1 86/7/1 85/8/1
f 85/8/5 86/7/5 82/9/5 81/10/5
