# Blender 3.6.4
# www.blender.org
o Eye
v 0.500000 0.500000 -0.125000
v -0.375000 0.375000 -0.125000
v 0.500000 0.500000 0.125000
v -0.375000 0.375000 0.125000
v -0.500000 0.500000 -0.125000
v -0.375000 -0.375000 -0.125000
v -0.500000 0.500000 0.125000
v 0.500000 -0.500000 -0.125000
v 0.375000 0.375000 -0.125000
v 0.375000 -0.375000 -0.125000
v 0.500000 -0.500000 0.125000
v 0.375000 0.375000 0.125000
v 0.375000 -0.375000 0.125000
v -0.500000 -0.500000 -0.125000
v -0.500000 -0.500000 0.125000
v -0.375000 -0.375000 0.125000
v -0.250000 0.250000 -0.125000
v 0.250000 0.250000 -0.125000
v -0.125000 0.125000 0.125000
v -0.125000 0.125000 -0.125000
v -0.250001 -0.250000 0.125000
v -0.249999 0.250000 0.125000
v 0.250000 -0.250000 -0.125000
v -0.250000 -0.250000 -0.125000
v -0.125000 -0.125000 -0.125000
v 0.250000 -0.250000 0.125000
v -0.125000 -0.125000 0.125000
v 0.125000 0.125000 -0.125000
v 0.125000 -0.125000 -0.125000
v 0.250001 0.250000 0.125000
v 0.125000 0.125000 0.125000
v 0.125000 -0.125000 0.125000
v -0.062500 0.250000 -0.125000
v -0.062500 0.375000 -0.125000
v 0.062500 0.250000 -0.125000
v 0.062500 0.375000 -0.125000
v -0.062500 0.250000 0.125000
v -0.062500 0.375000 0.125000
v 0.062500 0.250000 0.125000
v 0.062500 0.375000 0.125000
v -0.062500 -0.375000 -0.125000
v -0.062500 -0.250000 -0.125000
v 0.062500 -0.375000 -0.125000
v 0.062500 -0.250000 -0.125000
v -0.062500 -0.375000 0.125000
v -0.062500 -0.250000 0.125000
v 0.062500 -0.375000 0.125000
v 0.062500 -0.250000 0.125000
v -0.375000 0.062500 -0.125000
v -0.250000 0.062500 -0.125000
v -0.375000 -0.062500 -0.125000
v -0.250000 -0.062500 -0.125000
v -0.375000 0.062500 0.125000
v -0.250000 0.062500 0.125000
v -0.375000 -0.062500 0.125000
v -0.250000 -0.062500 0.125000
v 0.250000 0.062500 -0.125000
v 0.375000 0.062500 -0.125000
v 0.250000 -0.062500 -0.125000
v 0.375000 -0.062500 -0.125000
v 0.250000 0.062500 0.125000
v 0.375000 0.062500 0.125000
v 0.250000 -0.062500 0.125000
v 0.375000 -0.062500 0.125000
vn -0.0000 -0.0000 -1.0000
vn -0.0000 -1.0000 -0.0000
vn -0.0000 -0.0000 1.0000
vn -0.0000 1.0000 -0.0000
vn 1.0000 -0.0000 -0.0000
vn -1.0000 -0.0000 -0.0000
vt 0.375000 0.000000
vt 0.625000 0.000000
vt 0.625000 0.250000
vt 0.375000 0.250000
vt 0.625000 0.500000
vt 0.375000 0.500000
vt 0.625000 0.750000
vt 0.375000 0.750000
vt 0.625000 1.000000
vt 0.375000 1.000000
s 0
usemtl Concrete
f 5/1/1 1/2/1 9/3/1 2/4/1
f 2/4/2 9/3/2 12/5/2 4/6/2
f 4/6/3 12/5/3 3/7/3 7/8/3
f 7/8/4 3/7/4 1/9/4 5/10/4
f 14/1/1 5/2/1 2/3/1 6/4/1
f 6/4/5 2/3/5 4/5/5 16/6/5
f 16/6/3 4/5/3 7/7/3 15/8/3
f 15/8/6 7/7/6 5/9/6 14/10/6
f 1/1/1 8/2/1 10/3/1 9/4/1
f 9/4/6 10/3/6 13/5/6 12/6/6
f 12/6/3 13/5/3 11/7/3 3/8/3
f 3/8/5 11/7/5 8/9/5 1/10/5
f 8/1/1 14/2/1 6/3/1 10/4/1
f 10/4/4 6/3/4 16/5/4 13/6/4
f 13/6/3 16/5/3 15/7/3 11/8/3
f 11/8/2 15/7/2 14/9/2 8/10/2
f 17/1/1 18/2/1 28/3/1 20/4/1
f 20/4/2 28/3/2 31/5/2 19/6/2
f 19/6/3 31/5/3 30/7/3 22/8/3
f 22/8/4 30/7/4 18/9/4 17/10/4
f 24/1/1 17/2/1 20/3/1 25/4/1
f 25/4/5 20/3/5 19/5/5 27/6/5
f 27/6/3 19/5/3 22/7/3 21/8/3
f 21/8/6 22/7/6 17/9/6 24/10/6
f 23/1/1 24/2/1 25/3/1 29/4/1
f 29/4/4 25/3/4 27/5/4 32/6/4
f 32/6/3 27/5/3 21/7/3 26/8/3
f 26/8/2 21/7/2 24/9/2 23/10/2
f 18/1/1 23/2/1 29/3/1 28/4/1
f 28/4/6 29/3/6 32/5/6 31/6/6
f 31/6/3 32/5/3 26/7/3 30/8/3
f 30/8/5 26/7/5 23/9/5 18/10/5
f 33/1/1 34/2/1 36/3/1 35/4/1
f 35/4/5 36/3/5 40/5/5 39/6/5
f 39/6/3 40/5/3 38/7/3 37/8/3
f 37/8/6 38/7/6 34/9/6 33/10/6
f 41/1/1 42/2/1 44/3/1 43/4/1
f 43/4/5 44/3/5 48/5/5 47/6/5
f 47/6/3 48/5/3 46/7/3 45/8/3
f 45/8/6 46/7/6 42/9/6 41/10/6
f 49/1/1 50/2/1 52/3/1 51/4/1
f 51/4/2 52/3/2 56/5/2 55/6/2
f 55/6/3 56/5/3 54/7/3 53/8/3
f 53/8/4 54/7/4 50/9/4 49/10/4
f 57/1/1 58/2/1 60/3/1 59/4/1
f 59/4/2 60/3/2 64/5/2 63/6/2
f 63/6/3 64/5/3 62/7/3 61/8/3
f 61/8/4 62/7/4 58/9/4 57/10/4
