# Blender 3.6.4
# www.blender.org
mtllib breeze_blocks_flower.mtl
o Flower
v -0.375000 0.375000 0.125000
v 0.500000 0.500000 -0.125000
v -0.375000 0.375000 -0.125000
v 0.500000 -0.500000 0.125000
v 0.500000 0.500000 0.125000
v 0.375000 -0.375000 -0.125000
v -0.500000 0.500000 0.125000
v -0.375000 -0.375000 0.125000
v -0.500000 0.500000 -0.125000
v -0.500000 -0.500000 0.125000
v 0.375000 -0.375000 0.125000
v -0.500000 -0.500000 -0.125000
v 0.500000 -0.500000 -0.125000
v -0.375000 -0.375000 -0.125000
v 0.000000 0.000000 0.125000
v -0.187500 0.187500 0.125000
v -0.375000 -0.000000 0.125000
v -0.187500 0.187500 -0.125000
v -0.375000 -0.000000 -0.125000
v -0.187500 -0.187500 0.125000
v 0.000000 -0.375000 0.125000
v -0.000000 0.000000 -0.125000
v -0.187500 -0.187500 -0.125000
v 0.000000 -0.375000 -0.125000
v 0.187500 -0.187500 0.125000
v 0.375000 0.000000 0.125000
v 0.187500 -0.187500 -0.125000
v 0.375000 0.000000 -0.125000
v 0.187500 0.187500 0.125000
v -0.000000 0.375000 0.125000
v 0.375000 0.375000 0.125000
v 0.187500 0.187500 -0.125000
v -0.000000 0.375000 -0.125000
v 0.375000 0.375000 -0.125000
vn -0.0000 -0.0000 1.0000
vn -0.0000 -1.0000 -0.0000
vn -0.0000 -0.0000 -1.0000
vn -0.0000 1.0000 -0.0000
vn -1.0000 -0.0000 -0.0000
vn 1.0000 -0.0000 -0.0000
vn 0.7071 0.7071 -0.0000
vn -0.7071 0.7071 -0.0000
vn -0.7071 -0.7071 -0.0000
vn 0.7071 -0.7071 -0.0000
vt 0.375000 0.000000
vt 0.625000 0.000000
vt 0.625000 0.250000
vt 0.375000 0.250000
vt 0.625000 0.500000
vt 0.375000 0.500000
vt 0.625000 0.750000
vt 0.375000 0.750000
vt 0.625000 1.000000
vt 0.375000 1.000000
vt 0.125000 0.500000
vt 0.125000 0.750000
vt 0.875000 0.500000
vt 0.875000 0.750000
s 0
usemtl Concrete
f 5/1/1 7/2/1 1/3/1 31/4/1
f 31/4/2 1/3/2 3/5/2 34/6/2
f 34/6/3 3/5/3 9/7/3 2/8/3
f 2/8/4 9/7/4 7/9/4 5/10/4
f 4/1/1 5/2/1 31/3/1 11/4/1
f 11/4/5 31/3/5 34/5/5 6/6/5
f 6/6/3 34/5/3 2/7/3 13/8/3
f 13/8/6 2/7/6 5/9/6 4/10/6
f 7/1/1 10/2/1 8/3/1 1/4/1
f 1/4/6 8/3/6 14/5/6 3/6/6
f 3/6/3 14/5/3 12/7/3 9/8/3
f 9/8/5 12/7/5 10/9/5 7/10/5
f 10/1/1 4/2/1 11/3/1 8/4/1
f 8/4/4 11/3/4 6/5/4 14/6/4
f 14/6/3 6/5/3 13/7/3 12/8/3
f 12/8/2 13/7/2 4/9/2 10/10/2
f 15/1/1 16/2/1 1/3/1 17/4/1
f 19/6/3 3/5/3 18/7/3 22/8/3
f 22/8/7 18/7/7 16/9/7 15/10/7
f 17/11/2 19/6/2 22/8/2 15/12/2
f 3/5/7 1/13/7 16/14/7 18/7/7
f 15/1/1 20/2/1 8/3/1 21/4/1
f 24/6/3 14/5/3 23/7/3 22/8/3
f 22/8/8 23/7/8 20/9/8 15/10/8
f 21/11/6 24/6/6 22/8/6 15/12/6
f 14/5/8 8/13/8 20/14/8 23/7/8
f 15/1/1 25/2/1 11/3/1 26/4/1
f 28/6/3 6/5/3 27/7/3 22/8/3
f 22/8/9 27/7/9 25/9/9 15/10/9
f 26/11/4 28/6/4 22/8/4 15/12/4
f 6/5/9 11/13/9 25/14/9 27/7/9
f 15/1/1 29/2/1 31/3/1 30/4/1
f 33/6/3 34/5/3 32/7/3 22/8/3
f 22/8/10 32/7/10 29/9/10 15/10/10
f 30/11/5 33/6/5 22/8/5 15/12/5
f 34/5/10 31/13/10 29/14/10 32/7/10
